<svg width="61" height="81" viewBox="0 0 61 81" fill="none" xmlns="http://www.w3.org/2000/svg">
<path d="M61 28.3519C61.0006 22.9178 59.3208 17.598 56.1608 13.0261C53.0008 8.45421 48.4936 4.82281 43.176 2.56436C37.8585 0.305909 31.9546 -0.484421 26.1675 0.287488C20.3804 1.0594 14.9539 3.36102 10.5342 6.91825C6.11456 10.4755 2.88799 15.1385 1.23873 20.3518C-0.410522 25.5652 -0.412955 31.1094 1.23172 36.324C2.8764 41.5386 6.09888 46.204 10.5154 49.7646C14.9319 53.3252 20.3564 55.6309 26.1429 56.4072V62.1007H15.9762C14.8206 62.1007 13.7123 62.5273 12.8952 63.2868C12.0781 64.0463 11.619 65.0764 11.619 66.1505C11.619 67.2246 12.0781 68.2547 12.8952 69.0142C13.7123 69.7737 14.8206 70.2004 15.9762 70.2004H26.1429V76.9501C26.1429 78.0242 26.6019 79.0543 27.419 79.8138C28.2362 80.5733 29.3444 81 30.5 81C31.6556 81 32.7638 80.5733 33.581 79.8138C34.3981 79.0543 34.8571 78.0242 34.8571 76.9501V70.2004H45.0238C46.1794 70.2004 47.2876 69.7737 48.1048 69.0142C48.9219 68.2547 49.381 67.2246 49.381 66.1505C49.381 65.0764 48.9219 64.0463 48.1048 63.2868C47.2876 62.5273 46.1794 62.1007 45.0238 62.1007H34.8571V56.4072C42.1118 55.4255 48.7446 52.0511 53.5442 46.9003C58.3439 41.7495 60.9902 35.166 61 28.3519ZM8.71429 28.3519C8.71429 24.3469 9.992 20.4319 12.3858 17.102C14.7797 13.772 18.1821 11.1766 22.163 9.64396C26.1438 8.11134 30.5242 7.71034 34.7502 8.49166C38.9762 9.27299 42.858 11.2015 45.9048 14.0335C48.9516 16.8654 51.0265 20.4734 51.8671 24.4014C52.7077 28.3294 52.2763 32.4009 50.6274 36.1009C48.9785 39.801 46.1861 42.9635 42.6035 45.1885C39.0209 47.4135 34.8088 48.6011 30.5 48.6011C24.7241 48.5949 19.1868 46.4595 15.1026 42.6634C11.0184 38.8672 8.72101 33.7204 8.71429 28.3519Z" fill="#CCCCCC"/>
</svg>
