<svg width="168" height="241" viewBox="0 0 168 241" fill="none" xmlns="http://www.w3.org/2000/svg">
<path d="M168 84.9999C168.002 68.8984 163.375 53.1356 154.672 39.5887C145.969 26.0419 133.556 15.2818 118.911 8.58983C104.266 1.89788 88.0061 -0.443917 72.0679 1.8433C56.1296 4.13052 41.1845 10.9504 29.0123 21.4907C16.8401 32.0311 7.9538 45.8477 3.41159 61.2953C-1.13062 76.743 -1.13732 93.1706 3.39228 108.622C7.92188 124.073 16.7969 137.897 28.9605 148.447C41.124 158.998 56.0636 165.83 72 168.13V185H44C40.8174 185 37.7652 186.264 35.5147 188.515C33.2643 190.765 32 193.817 32 197C32 200.183 33.2643 203.235 35.5147 205.485C37.7652 207.736 40.8174 209 44 209H72V229C72 232.183 73.2643 235.235 75.5147 237.485C77.7652 239.736 80.8174 241 84 241C87.1826 241 90.2348 239.736 92.4853 237.485C94.7357 235.235 96 232.183 96 229V209H124C127.183 209 130.235 207.736 132.485 205.485C134.736 203.235 136 200.183 136 197C136 193.817 134.736 190.765 132.485 188.515C130.235 186.264 127.183 185 124 185H96V168.13C115.98 165.221 134.247 155.222 147.466 139.96C160.685 124.698 167.973 105.191 168 84.9999ZM24 84.9999C24 73.1331 27.5189 61.5327 34.1118 51.6657C40.7047 41.7988 50.0754 34.1084 61.039 29.5672C72.0026 25.0259 84.0666 23.8377 95.7054 26.1528C107.344 28.4679 118.035 34.1824 126.426 42.5735C134.818 50.9647 140.532 61.6557 142.847 73.2945C145.162 84.9334 143.974 96.9974 139.433 107.961C134.892 118.925 127.201 128.295 117.334 134.888C107.467 141.481 95.8669 145 84 145C68.0927 144.981 52.8422 138.654 41.5941 127.406C30.3459 116.158 24.0185 100.907 24 84.9999Z" fill="white"/>
</svg>
