<svg width="120" height="120" viewBox="0 0 120 120" fill="none" xmlns="http://www.w3.org/2000/svg">
<path d="M113.031 0.078125H85.4687C83.6412 0.078125 81.8886 0.8041 80.5963 2.09634C79.3041 3.38859 78.5781 5.14124 78.5781 6.96875C78.5781 8.79626 79.3041 10.5489 80.5963 11.8412C81.8886 13.1334 83.6412 13.8594 85.4687 13.8594H96.3789L77.5904 32.6593C67.8231 25.3598 55.6537 22.0304 43.5308 23.3411C31.4078 24.6517 20.2312 30.5052 12.2498 39.7237C4.26836 48.9422 0.0745364 60.8415 0.512185 73.0272C0.949834 85.2129 5.98647 96.7807 14.6086 105.403C23.2308 114.025 34.7985 119.062 46.9843 119.499C59.17 119.937 71.0693 115.743 80.2877 107.762C89.5062 99.7803 95.3597 88.6036 96.6704 76.4807C97.9811 64.3578 94.6517 52.1883 87.3522 42.421L106.141 23.6211V34.5312C106.141 36.3588 106.867 38.1114 108.159 39.4037C109.451 40.6959 111.204 41.4219 113.031 41.4219C114.859 41.4219 116.611 40.6959 117.904 39.4037C119.196 38.1114 119.922 36.3588 119.922 34.5312V6.96875C119.922 5.14124 119.196 3.38859 117.904 2.09634C116.611 0.8041 114.859 0.078125 113.031 0.078125ZM73.0713 95.6626C68.2524 100.48 62.1134 103.759 55.4306 105.088C48.7477 106.416 41.821 105.733 35.5264 103.125C29.2317 100.517 23.8517 96.1008 20.0665 90.4353C16.2814 84.7698 14.2611 78.1092 14.2611 71.2956C14.2611 64.482 16.2814 57.8214 20.0665 52.1559C23.8517 46.4904 29.2317 42.0745 35.5264 39.4664C41.821 36.8583 48.7477 36.1752 55.4306 37.5035C62.1134 38.8317 68.2524 42.1117 73.0713 46.9286C79.5215 53.3977 83.1436 62.1603 83.1436 71.2956C83.1436 80.4309 79.5215 89.1935 73.0713 95.6626Z" fill="white"/>
</svg>
