<svg width="108" height="91" viewBox="0 0 108 91" fill="none" xmlns="http://www.w3.org/2000/svg">
<path d="M101.769 0H76.847C75.1945 0 73.6098 0.553055 72.4413 1.5375C71.2728 2.52194 70.6164 3.85714 70.6164 5.24935C70.6164 6.64157 71.2728 7.97676 72.4413 8.96121C73.6098 9.94565 75.1945 10.4987 76.847 10.4987H86.7121L69.7234 24.8207C60.8916 19.2598 49.8878 16.7235 38.9261 17.7219C27.9644 18.7204 17.8583 23.1797 10.6414 30.2024C3.42451 37.2252 -0.367602 46.2902 0.0281266 55.5734C0.423855 64.8566 4.97805 73.669 12.7743 80.2375C20.5706 86.8059 31.0303 90.6429 42.0488 90.9763C53.0673 91.3097 63.8268 88.1148 72.1623 82.0345C80.4978 75.9542 85.7906 67.4397 86.9757 58.2043C88.1609 48.9689 85.1504 39.6981 78.55 32.2573L95.5388 17.9353V26.2468C95.5388 27.639 96.1952 28.9742 97.3637 29.9586C98.5322 30.9431 100.117 31.4961 101.769 31.4961C103.422 31.4961 105.007 30.9431 106.175 29.9586C107.344 28.9742 108 27.639 108 26.2468V5.24935C108 3.85714 107.344 2.52194 106.175 1.5375C105.007 0.553055 103.422 0 101.769 0ZM65.6371 72.8173C61.2798 76.4869 55.7288 78.9856 49.6861 79.9975C43.6433 81.0093 37.3802 80.4889 31.6884 78.5021C25.9967 76.5152 21.132 73.1511 17.7094 68.8351C14.2869 64.519 12.4601 59.4449 12.4601 54.2542C12.4601 49.0636 14.2869 43.9895 17.7094 39.6734C21.132 35.3574 25.9967 31.9933 31.6884 30.0064C37.3802 28.0195 43.6433 27.4992 49.6861 28.511C55.7288 29.5229 61.2798 32.0216 65.6371 35.6912C71.4695 40.6194 74.7446 47.2949 74.7446 54.2542C74.7446 61.2136 71.4695 67.8891 65.6371 72.8173Z" fill="#699BF7"/>
</svg>
