<svg width="105" height="102" viewBox="0 0 105 102" fill="none" xmlns="http://www.w3.org/2000/svg">
<path d="M99 0.5625H75C73.4087 0.5625 71.8826 1.17489 70.7574 2.26494C69.6322 3.355 69 4.83343 69 6.375C69 7.91657 69.6322 9.395 70.7574 10.4851C71.8826 11.5751 73.4087 12.1875 75 12.1875H84.5L68.14 28.0459C59.6352 21.8885 49.0386 19.08 38.4826 20.1857C27.9266 21.2913 18.1946 26.2289 11.2448 34.005C4.29496 41.7812 0.643196 51.8187 1.02428 62.0978C1.40536 72.3769 5.791 82.1347 13.2987 89.4078C20.8065 96.6809 30.8791 100.93 41.4898 101.299C52.1005 101.668 62.4617 98.1302 70.4887 91.3976C78.5157 84.665 83.6126 75.2371 84.7539 65.0109C85.8952 54.7848 82.9961 44.5194 76.64 36.2803L93 20.4219V29.625C93 31.1666 93.6322 32.645 94.7574 33.7351C95.8826 34.8251 97.4087 35.4375 99 35.4375C100.591 35.4375 102.117 34.8251 103.243 33.7351C104.368 32.645 105 31.1666 105 29.625V6.375C105 4.83343 104.368 3.355 103.243 2.26494C102.117 1.17489 100.591 0.5625 99 0.5625ZM64.205 81.1916C60.009 85.2549 54.6635 88.0216 48.8444 89.142C43.0253 90.2625 36.9939 89.6862 31.5128 87.4862C26.0317 85.2862 21.3471 81.5612 18.0512 76.7821C14.7553 72.0031 12.9961 66.3846 12.9961 60.6371C12.9961 54.8896 14.7553 49.2711 18.0512 44.4921C21.3471 39.713 26.0317 35.988 31.5128 33.788C36.9939 31.588 43.0253 31.0117 48.8444 32.1322C54.6635 33.2526 60.009 36.0194 64.205 40.0827C69.8215 45.5395 72.9755 52.9311 72.9755 60.6371C72.9755 68.3431 69.8215 75.7347 64.205 81.1916Z" fill="#CCCCCC"/>
</svg>
